<mxfile host="app.diagrams.net" modified="2024-02-23T05:11:08.938Z" agent="Mozilla/5.0 (Windows NT 10.0; Win64; x64) AppleWebKit/537.36 (KHTML, like Gecko) Chrome/121.0.0.0 Safari/537.36" etag="UyPbpKKjH6YIeWDMllzj" version="23.1.6" type="device">
  <diagram name="Страница — 1" id="UQps0EaHdQjl7eOMNExR">
    <mxGraphModel dx="1194" dy="639" grid="1" gridSize="10" guides="1" tooltips="1" connect="1" arrows="1" fold="1" page="1" pageScale="1" pageWidth="827" pageHeight="1169" math="0" shadow="0">
      <root>
        <mxCell id="0" />
        <mxCell id="1" parent="0" />
        <mxCell id="r3e9sqoa3jPLr-kKr7Gm-3" value="" style="edgeStyle=orthogonalEdgeStyle;rounded=0;orthogonalLoop=1;jettySize=auto;html=1;" parent="1" source="r3e9sqoa3jPLr-kKr7Gm-1" target="r3e9sqoa3jPLr-kKr7Gm-2" edge="1">
          <mxGeometry relative="1" as="geometry" />
        </mxCell>
        <mxCell id="r3e9sqoa3jPLr-kKr7Gm-1" value="&lt;font style=&quot;font-size: 18px;&quot;&gt;Старт&lt;/font&gt;" style="ellipse;whiteSpace=wrap;html=1;fillColor=#f8cecc;strokeColor=#b85450;" parent="1" vertex="1">
          <mxGeometry x="200" y="70" width="190" height="80" as="geometry" />
        </mxCell>
        <mxCell id="r3e9sqoa3jPLr-kKr7Gm-29" value="" style="edgeStyle=orthogonalEdgeStyle;rounded=0;orthogonalLoop=1;jettySize=auto;html=1;" parent="1" source="r3e9sqoa3jPLr-kKr7Gm-2" target="r3e9sqoa3jPLr-kKr7Gm-28" edge="1">
          <mxGeometry relative="1" as="geometry" />
        </mxCell>
        <mxCell id="r3e9sqoa3jPLr-kKr7Gm-2" value="&lt;font style=&quot;&quot;&gt;&lt;span style=&quot;font-size: 14px;&quot;&gt;array[] = [&quot;Hello&quot;, &quot;2&quot;, &quot;world&quot;, &quot;:-)&quot;]&lt;/span&gt;&lt;br&gt;&lt;/font&gt;" style="shape=parallelogram;perimeter=parallelogramPerimeter;whiteSpace=wrap;html=1;fixedSize=1;fillColor=#008a00;strokeColor=#005700;fontColor=#ffffff;" parent="1" vertex="1">
          <mxGeometry x="170" y="180" width="250" height="50" as="geometry" />
        </mxCell>
        <mxCell id="kgm68Vdz1Rq3Bs_naHoy-9" value="" style="edgeStyle=orthogonalEdgeStyle;rounded=0;orthogonalLoop=1;jettySize=auto;html=1;entryX=0.5;entryY=0;entryDx=0;entryDy=0;" parent="1" source="r3e9sqoa3jPLr-kKr7Gm-28" target="kgm68Vdz1Rq3Bs_naHoy-3" edge="1">
          <mxGeometry relative="1" as="geometry" />
        </mxCell>
        <mxCell id="r3e9sqoa3jPLr-kKr7Gm-28" value="&lt;font style=&quot;font-size: 14px;&quot;&gt;j=0&lt;br&gt;&lt;/font&gt;" style="whiteSpace=wrap;html=1;fillColor=#d80073;strokeColor=#A50040;fontColor=#ffffff;" parent="1" vertex="1">
          <mxGeometry x="235" y="250" width="120" height="40" as="geometry" />
        </mxCell>
        <mxCell id="r3e9sqoa3jPLr-kKr7Gm-46" value="" style="edgeStyle=orthogonalEdgeStyle;rounded=0;orthogonalLoop=1;jettySize=auto;html=1;" parent="1" source="r3e9sqoa3jPLr-kKr7Gm-40" target="r3e9sqoa3jPLr-kKr7Gm-45" edge="1">
          <mxGeometry relative="1" as="geometry" />
        </mxCell>
        <mxCell id="r3e9sqoa3jPLr-kKr7Gm-40" value="Вывод&lt;br&gt;arr" style="shape=document;whiteSpace=wrap;html=1;boundedLbl=1;fillColor=#a0522d;strokeColor=#6D1F00;fontColor=#ffffff;" parent="1" vertex="1">
          <mxGeometry x="575" y="830" width="120" height="80" as="geometry" />
        </mxCell>
        <mxCell id="r3e9sqoa3jPLr-kKr7Gm-45" value="&lt;span style=&quot;font-size: 18px;&quot;&gt;Завершение&lt;/span&gt;" style="ellipse;whiteSpace=wrap;html=1;fillColor=#f8cecc;strokeColor=#b85450;" parent="1" vertex="1">
          <mxGeometry x="540" y="940" width="190" height="80" as="geometry" />
        </mxCell>
        <mxCell id="qb0x4ztdKFJDcdsIb8_I-3" style="edgeStyle=orthogonalEdgeStyle;rounded=0;orthogonalLoop=1;jettySize=auto;html=1;entryX=0.5;entryY=0;entryDx=0;entryDy=0;" edge="1" parent="1" source="kgm68Vdz1Rq3Bs_naHoy-3" target="qb0x4ztdKFJDcdsIb8_I-2">
          <mxGeometry relative="1" as="geometry">
            <Array as="points">
              <mxPoint x="500" y="381" />
              <mxPoint x="500" y="620" />
              <mxPoint x="295" y="620" />
            </Array>
          </mxGeometry>
        </mxCell>
        <mxCell id="qb0x4ztdKFJDcdsIb8_I-12" style="edgeStyle=orthogonalEdgeStyle;rounded=0;orthogonalLoop=1;jettySize=auto;html=1;exitX=0.5;exitY=1;exitDx=0;exitDy=0;entryX=0.5;entryY=0;entryDx=0;entryDy=0;" edge="1" parent="1" source="kgm68Vdz1Rq3Bs_naHoy-3" target="qb0x4ztdKFJDcdsIb8_I-11">
          <mxGeometry relative="1" as="geometry" />
        </mxCell>
        <mxCell id="kgm68Vdz1Rq3Bs_naHoy-3" value="" style="verticalLabelPosition=bottom;verticalAlign=middle;html=1;shape=hexagon;perimeter=hexagonPerimeter2;arcSize=6;size=0.27;fillColor=#0050ef;strokeColor=#001DBC;fontColor=#ffffff;fontSize=14;" parent="1" vertex="1">
          <mxGeometry x="122.5" y="340" width="345" height="82" as="geometry" />
        </mxCell>
        <mxCell id="kgm68Vdz1Rq3Bs_naHoy-8" value="i=0; i&amp;lt;array.Length; i++" style="text;strokeColor=none;align=center;fillColor=none;html=1;verticalAlign=middle;whiteSpace=wrap;rounded=0;labelBackgroundColor=none;fontColor=#FFFFFF;" parent="1" vertex="1">
          <mxGeometry x="227.5" y="366" width="135" height="30" as="geometry" />
        </mxCell>
        <mxCell id="_LBd01aK7xIOlqUQskht-4" style="edgeStyle=orthogonalEdgeStyle;rounded=0;orthogonalLoop=1;jettySize=auto;html=1;entryX=0;entryY=0.5;entryDx=0;entryDy=0;" parent="1" source="kgm68Vdz1Rq3Bs_naHoy-16" target="kgm68Vdz1Rq3Bs_naHoy-3" edge="1">
          <mxGeometry relative="1" as="geometry">
            <Array as="points">
              <mxPoint x="295" y="600" />
              <mxPoint x="103" y="600" />
              <mxPoint x="103" y="381" />
            </Array>
          </mxGeometry>
        </mxCell>
        <mxCell id="kgm68Vdz1Rq3Bs_naHoy-16" value="j++" style="whiteSpace=wrap;html=1;fillColor=#d80073;strokeColor=#A50040;fontColor=#ffffff;" parent="1" vertex="1">
          <mxGeometry x="235" y="535" width="120" height="50" as="geometry" />
        </mxCell>
        <mxCell id="kgm68Vdz1Rq3Bs_naHoy-24" value="Да" style="text;html=1;align=center;verticalAlign=middle;resizable=0;points=[];autosize=1;strokeColor=none;fillColor=none;" parent="1" vertex="1">
          <mxGeometry x="240" y="422" width="40" height="30" as="geometry" />
        </mxCell>
        <mxCell id="_LBd01aK7xIOlqUQskht-5" value="нет" style="text;html=1;align=center;verticalAlign=middle;resizable=0;points=[];autosize=1;strokeColor=none;fillColor=none;" parent="1" vertex="1">
          <mxGeometry x="460" y="340" width="40" height="30" as="geometry" />
        </mxCell>
        <mxCell id="qb0x4ztdKFJDcdsIb8_I-6" style="edgeStyle=orthogonalEdgeStyle;rounded=0;orthogonalLoop=1;jettySize=auto;html=1;exitX=0.5;exitY=1;exitDx=0;exitDy=0;" edge="1" parent="1" source="qb0x4ztdKFJDcdsIb8_I-2" target="qb0x4ztdKFJDcdsIb8_I-4">
          <mxGeometry relative="1" as="geometry" />
        </mxCell>
        <mxCell id="qb0x4ztdKFJDcdsIb8_I-2" value="arr = new arr[j]&lt;br&gt;j=0" style="whiteSpace=wrap;html=1;fillColor=#d80073;strokeColor=#A50040;fontColor=#ffffff;" vertex="1" parent="1">
          <mxGeometry x="235" y="640" width="120" height="50" as="geometry" />
        </mxCell>
        <mxCell id="qb0x4ztdKFJDcdsIb8_I-10" value="" style="edgeStyle=orthogonalEdgeStyle;rounded=0;orthogonalLoop=1;jettySize=auto;html=1;" edge="1" parent="1" source="qb0x4ztdKFJDcdsIb8_I-4" target="qb0x4ztdKFJDcdsIb8_I-9">
          <mxGeometry relative="1" as="geometry" />
        </mxCell>
        <mxCell id="qb0x4ztdKFJDcdsIb8_I-18" style="edgeStyle=orthogonalEdgeStyle;rounded=0;orthogonalLoop=1;jettySize=auto;html=1;exitX=1;exitY=0.5;exitDx=0;exitDy=0;entryX=0.5;entryY=0;entryDx=0;entryDy=0;" edge="1" parent="1" source="qb0x4ztdKFJDcdsIb8_I-4" target="r3e9sqoa3jPLr-kKr7Gm-40">
          <mxGeometry relative="1" as="geometry" />
        </mxCell>
        <mxCell id="qb0x4ztdKFJDcdsIb8_I-4" value="" style="verticalLabelPosition=bottom;verticalAlign=middle;html=1;shape=hexagon;perimeter=hexagonPerimeter2;arcSize=6;size=0.27;fillColor=#0050ef;strokeColor=#001DBC;fontColor=#ffffff;fontSize=14;" vertex="1" parent="1">
          <mxGeometry x="122.5" y="730" width="345" height="82" as="geometry" />
        </mxCell>
        <mxCell id="qb0x4ztdKFJDcdsIb8_I-5" value="i=0; i&amp;lt;array.Length; i++" style="text;strokeColor=none;align=center;fillColor=none;html=1;verticalAlign=middle;whiteSpace=wrap;rounded=0;labelBackgroundColor=none;fontColor=#FFFFFF;" vertex="1" parent="1">
          <mxGeometry x="227.5" y="756" width="135" height="30" as="geometry" />
        </mxCell>
        <mxCell id="qb0x4ztdKFJDcdsIb8_I-16" style="edgeStyle=orthogonalEdgeStyle;rounded=0;orthogonalLoop=1;jettySize=auto;html=1;exitX=0.5;exitY=1;exitDx=0;exitDy=0;entryX=0.5;entryY=0;entryDx=0;entryDy=0;" edge="1" parent="1" source="qb0x4ztdKFJDcdsIb8_I-9" target="qb0x4ztdKFJDcdsIb8_I-15">
          <mxGeometry relative="1" as="geometry" />
        </mxCell>
        <mxCell id="qb0x4ztdKFJDcdsIb8_I-9" value="array[i].Length &amp;lt;= 3" style="rhombus;whiteSpace=wrap;html=1;fontSize=14;fillColor=#0050ef;strokeColor=#001DBC;fontColor=#ffffff;arcSize=6;" vertex="1" parent="1">
          <mxGeometry x="212.5" y="830" width="165" height="80" as="geometry" />
        </mxCell>
        <mxCell id="qb0x4ztdKFJDcdsIb8_I-14" style="edgeStyle=orthogonalEdgeStyle;rounded=0;orthogonalLoop=1;jettySize=auto;html=1;exitX=0.5;exitY=1;exitDx=0;exitDy=0;entryX=0.5;entryY=0;entryDx=0;entryDy=0;" edge="1" parent="1" source="qb0x4ztdKFJDcdsIb8_I-11" target="kgm68Vdz1Rq3Bs_naHoy-16">
          <mxGeometry relative="1" as="geometry" />
        </mxCell>
        <mxCell id="qb0x4ztdKFJDcdsIb8_I-11" value="array[i].Length &amp;lt;= 3" style="rhombus;whiteSpace=wrap;html=1;fontSize=14;fillColor=#0050ef;strokeColor=#001DBC;fontColor=#ffffff;arcSize=6;" vertex="1" parent="1">
          <mxGeometry x="212.5" y="440" width="165" height="80" as="geometry" />
        </mxCell>
        <mxCell id="qb0x4ztdKFJDcdsIb8_I-17" style="edgeStyle=orthogonalEdgeStyle;rounded=0;orthogonalLoop=1;jettySize=auto;html=1;exitX=0.5;exitY=1;exitDx=0;exitDy=0;entryX=0;entryY=0.5;entryDx=0;entryDy=0;" edge="1" parent="1" source="qb0x4ztdKFJDcdsIb8_I-15" target="qb0x4ztdKFJDcdsIb8_I-4">
          <mxGeometry relative="1" as="geometry" />
        </mxCell>
        <mxCell id="qb0x4ztdKFJDcdsIb8_I-15" value="arr[j] = array[i]" style="whiteSpace=wrap;html=1;fillColor=#d80073;strokeColor=#A50040;fontColor=#ffffff;" vertex="1" parent="1">
          <mxGeometry x="235" y="930" width="120" height="50" as="geometry" />
        </mxCell>
        <mxCell id="qb0x4ztdKFJDcdsIb8_I-19" value="Да" style="text;html=1;align=center;verticalAlign=middle;resizable=0;points=[];autosize=1;strokeColor=none;fillColor=none;" vertex="1" parent="1">
          <mxGeometry x="240" y="812" width="40" height="30" as="geometry" />
        </mxCell>
        <mxCell id="qb0x4ztdKFJDcdsIb8_I-20" value="нет" style="text;html=1;align=center;verticalAlign=middle;resizable=0;points=[];autosize=1;strokeColor=none;fillColor=none;" vertex="1" parent="1">
          <mxGeometry x="460" y="726" width="40" height="30" as="geometry" />
        </mxCell>
      </root>
    </mxGraphModel>
  </diagram>
</mxfile>
